<svg width="1024" height="158" viewBox="0 0 1024 158" fill="none" xmlns="http://www.w3.org/2000/svg">
<g filter="url(#filter0_d_23_97)">
<path d="M365.128 152H-85C-99.8708 152 -107.306 152 -113.475 150.689C-136.654 145.762 -154.762 127.654 -159.689 104.475C-161 98.3063 -161 90.8708 -161 76C-161 61.1292 -161 53.6937 -159.689 47.5253C-154.762 24.3461 -136.654 6.23804 -113.475 1.31114C-107.306 0 -99.8708 0 -85 0H1142.5C1165.97 0 1185 19.0279 1185 42.5C1185 65.9721 1165.97 85 1142.5 85H521.37C501.177 85 491.081 85 481.812 88.1025C478.695 89.1457 475.67 90.4431 472.766 91.9817C464.128 96.558 457.168 103.872 443.249 118.5L443.248 118.5C429.329 133.128 422.369 140.442 413.732 145.018C410.828 146.557 407.802 147.854 404.686 148.897C395.417 152 385.32 152 365.128 152Z" fill="#FFF7F0"/>
</g>
<defs>
<filter id="filter0_d_23_97" x="-167" y="-6" width="1358" height="164" filterUnits="userSpaceOnUse" color-interpolation-filters="sRGB">
<feFlood flood-opacity="0" result="BackgroundImageFix"/>
<feColorMatrix in="SourceAlpha" type="matrix" values="0 0 0 0 0 0 0 0 0 0 0 0 0 0 0 0 0 0 127 0" result="hardAlpha"/>
<feOffset/>
<feGaussianBlur stdDeviation="3"/>
<feComposite in2="hardAlpha" operator="out"/>
<feColorMatrix type="matrix" values="0 0 0 0 0.917647 0 0 0 0 0.117647 0 0 0 0 0.47451 0 0 0 1 0"/>
<feBlend mode="normal" in2="BackgroundImageFix" result="effect1_dropShadow_23_97"/>
<feBlend mode="normal" in="SourceGraphic" in2="effect1_dropShadow_23_97" result="shape"/>
</filter>
</defs>
</svg>
